<?xml version="1.0"?>
<svg xmlns="http://www.w3.org/2000/svg" xmlns:xlink="http://www.w3.org/1999/xlink" version="1.1" id="Capa_1" x="0px" y="0px" viewBox="0 0 420.605 420.605" style="enable-background:new 0 0 420.605 420.605;" xml:space="preserve" width="512px" height="512px" class=""><g><g>
	<g>
		<path d="M384.663,33.76c-20.851-9.426-42.733-16.38-65.2-20.72c-4.32-0.929-8.574,1.82-9.503,6.139    c-0.131,0.611-0.191,1.236-0.177,1.861v61.2h-57.92v-72c0.017-4.152-3.145-7.626-7.28-8C224.503,0.4,211.143,0,210.103,0    c-1.04,0-13.92,0.4-34,2.24c-4.135,0.374-7.297,3.848-7.28,8v72h-58V20.88c0.099-4.417-3.402-8.078-7.819-8.177    c-0.625-0.014-1.25,0.045-1.861,0.177c-22.467,4.34-44.349,11.294-65.2,20.72c-2.778,1.323-4.551,4.123-4.56,7.2v172.32    c0.16,5.12,2.96,130.32,175.68,206.8c2.063,0.914,4.417,0.914,6.48,0c172.8-76.48,175.6-201.68,175.68-206.88V40.96    C389.214,37.883,387.441,35.083,384.663,33.76z M373.223,212.96c0,1.2-2.88,118.4-162.88,190.88    c-31.129-13.688-60.121-31.794-86.08-53.76l248.96-154.56V212.96z M373.223,176.64l-261.2,162.16    c-16.242-15.621-30.169-33.481-41.36-53.04l302.56-187.52V176.64z M373.463,79.12l-309.84,192c-9.1-18.233-14.536-38.074-16-58.4    l-0.16-166.64c15.291-6.498,31.143-11.586,47.36-15.2v59.36c0,4.418,3.582,8,8,8h74c4.418,0,8-3.582,8-8v-72    c15.36-2,25.52-2.32,25.52-2.32s10.32,0,25.76,1.52v72c0,4.418,3.582,8,8,8h74c4.418,0,8-3.582,8-8V30.88    c16.217,3.614,32.069,8.702,47.36,15.2V79.12z" data-original="#000000" class="active-path" data-old_color="#FFF700" fill="#FFEF00"/>
	</g>
</g></g> </svg>
